<mxfile host="Electron" modified="2023-06-12T23:23:50.015Z" agent="Mozilla/5.0 (Macintosh; Intel Mac OS X 10_15_7) AppleWebKit/537.36 (KHTML, like Gecko) draw.io/21.3.7 Chrome/112.0.5615.204 Electron/24.5.0 Safari/537.36" etag="hoS4zV0MpImhdjdIg_C-" version="21.3.7" type="device">
  <diagram name="Page-1" id="5IMEIsmRH4fKd-79jkhO">
    <mxGraphModel dx="1114" dy="879" grid="1" gridSize="10" guides="1" tooltips="1" connect="1" arrows="1" fold="1" page="1" pageScale="1" pageWidth="850" pageHeight="1100" math="1" shadow="0">
      <root>
        <mxCell id="0" />
        <mxCell id="1" parent="0" />
        <mxCell id="uokqZw4Cs7nz16fzZ881-1" value="" style="group" vertex="1" connectable="0" parent="1">
          <mxGeometry x="305" y="290" width="120" height="80" as="geometry" />
        </mxCell>
        <mxCell id="uokqZw4Cs7nz16fzZ881-2" value="" style="rounded=1;whiteSpace=wrap;html=1;arcSize=5;fontFamily=SF Mono;" vertex="1" parent="uokqZw4Cs7nz16fzZ881-1">
          <mxGeometry width="120" height="80" as="geometry" />
        </mxCell>
        <mxCell id="uokqZw4Cs7nz16fzZ881-3" value="ref_count: 2" style="rounded=0;whiteSpace=wrap;html=1;fontFamily=SF Mono;" vertex="1" parent="uokqZw4Cs7nz16fzZ881-1">
          <mxGeometry y="10" width="120" height="30" as="geometry" />
        </mxCell>
        <mxCell id="uokqZw4Cs7nz16fzZ881-4" value="$$obj$$" style="text;html=1;strokeColor=none;fillColor=none;align=center;verticalAlign=middle;whiteSpace=wrap;rounded=0;" vertex="1" parent="1">
          <mxGeometry x="245" y="315" width="60" height="30" as="geometry" />
        </mxCell>
        <mxCell id="uokqZw4Cs7nz16fzZ881-5" value="a" style="text;html=1;strokeColor=none;fillColor=none;align=center;verticalAlign=middle;whiteSpace=wrap;rounded=0;fontFamily=SF Mono;" vertex="1" parent="1">
          <mxGeometry x="305" y="180" width="60" height="30" as="geometry" />
        </mxCell>
        <mxCell id="uokqZw4Cs7nz16fzZ881-6" value="" style="endArrow=classic;html=1;rounded=0;exitX=0.5;exitY=1;exitDx=0;exitDy=0;entryX=0.5;entryY=0;entryDx=0;entryDy=0;" edge="1" parent="1" source="uokqZw4Cs7nz16fzZ881-5">
          <mxGeometry width="50" height="50" relative="1" as="geometry">
            <mxPoint x="555" y="460" as="sourcePoint" />
            <mxPoint x="335" y="290" as="targetPoint" />
          </mxGeometry>
        </mxCell>
        <mxCell id="uokqZw4Cs7nz16fzZ881-7" value="b" style="text;html=1;strokeColor=none;fillColor=none;align=center;verticalAlign=middle;whiteSpace=wrap;rounded=0;fontFamily=SF Mono;" vertex="1" parent="1">
          <mxGeometry x="360" y="180" width="60" height="30" as="geometry" />
        </mxCell>
        <mxCell id="uokqZw4Cs7nz16fzZ881-8" value="" style="endArrow=classic;html=1;rounded=0;exitX=0.5;exitY=1;exitDx=0;exitDy=0;entryX=0.5;entryY=0;entryDx=0;entryDy=0;" edge="1" parent="1" source="uokqZw4Cs7nz16fzZ881-7">
          <mxGeometry width="50" height="50" relative="1" as="geometry">
            <mxPoint x="610" y="460" as="sourcePoint" />
            <mxPoint x="390" y="290" as="targetPoint" />
          </mxGeometry>
        </mxCell>
      </root>
    </mxGraphModel>
  </diagram>
</mxfile>
